classDiagram
  %% algebra -- auto-generated by MermaidMain, do not edit

  class AlgebraException {
    -val cause Throwable
    -val message String
  }
  class Algebraic {
    <<trait>>
    +def add(addend:Rational) Algebraic
    +def base Structure
    +def coefficient Int
    +def isPureNumber Boolean
    +def offset Structure
    -def fuzzyEqv(confidence:Double) _
    -def isExact Boolean
    -def maybeFactor(context:Context) Option~Factor~
  }
  class Angle {
    -def *(factor:Rational) Angle
    -def +(a:Angle) Angle
    -def add(other:Angle) Try~Angle~
    -def compare(that:Functional) Int
    -def compareExact(that:Scalar) Option~Int~
    -def convert~..~ _
    -def divide(n:Number) Try~Angle~
    -def divide(other:Angle) Try~Number~
    -def doPlus(that:Scalar) Option~Scalar~
    -def eqv(that:Eager) Try~Boolean~
    ...(21 more)
  }
  class Approximate {
    <<trait>>
    +def approximation(force:Boolean) Option~Real~
    +def fuzzy Eager
    -def approximationComplex(force:Boolean) Option~Eager~
    -val toDouble Double
  }
  class BinaryExponential {
    -def compareExact(that:Exponential) Option~Int~
    -def maybeFactor(context:Context) Option~Factor~
    -def unit(x:Number) Exponential
    -val base Number
    -val exponent Number
    -val maybeName Option~String~
    -val negate Structure
    -val render String
    -val zero Exponential
  }
  class Branched {
    <<trait>>
    +def branched(index:Int) T
    +def branches Int
  }
  class C {
    <<trait>>
  }
  class Can {
    <<trait>>
    -def asT T
  }
  class CanAdd {
    <<trait>>
    +def zero T
    -def +(that:U) _
    -def acm(x$1:AdditiveCommutativeMonoid~T~) AdditiveCommutativeMonoid~T~
    -def plus(that:Structure) _
  }
  class CanAddAndSubtract {
    <<trait>>
    +def -(that:T) _
    +def unary_- T
  }
  class CanMultiply {
    <<trait>>
    +def one T
    -def *(that:T) _
    -def mm(x$1:MultiplicativeMonoid~T~) MultiplicativeMonoid~T~
  }
  class CanMultiplyAndDivide {
    <<trait>>
    -def /(that:T) _
    -def mg(x$1:MultiplicativeGroup~T~) MultiplicativeGroup~T~
    -def reciprocal(x$1:MultiplicativeGroup~T~) T
  }
  class CanNegate {
    <<trait>>
    -def negate(x$1:AdditiveCommutativeGroup~T~) T
  }
  class CanNormalize {
    <<trait>>
    +def normalize T
  }
  class CanPower {
    <<trait>>
    +def pow(that:ExactNumber) Option~T~
  }
  class Circle {
    <<trait>>
  }
  class Complex {
    -def +(other:Solution) Solution
    -def approximation(force:Boolean) Option~Real~
    -def argument Number
    -def branches Int
    -def conjugate Solution
    -def doAdd(other:Complex) Complex
    -def doMultiply(other:Complex) Complex
    -def eqv(that:Eager) Try~Boolean~
    -def fuzzyEqv(confidence:Double) _
    -def isComplex Boolean
    ...(16 more)
  }
  class Context {
    <<trait>>
    -def and(that:CoreContext) Context
    -def not Context
    -def or(that:CoreContext) Context
    -def qualifyingEagerValue(so:Option~Eager~) Option~Eager~
    -def valuableQualifies(v:Valuable) Boolean
  }
  class Convertible {
    <<trait>>
    +def convert(t:T,u:U) T
  }
  class DyadicOperator {
    <<trait>>
    +def op~..~ _
  }
  class DyadicOps {
    <<trait>>
    +def compare(x:Eager,y:Eager) Try~Int~
    +def eqv(that:Eager) Try~Boolean~
    +def fuzzyCompare(p:Double) _
    +def fuzzyEqv(confidence:Double) _
  }
  class Eager {
    <<trait>>
    +def maybeName Option~String~
    +def normalize Eager
    -def add(y:Eager) Try~Eager~
    -def addEagers(x:Eager,y:Eager) Try~Eager~
    -def compare(x:Eager,y:Eager) Try~Int~
    -def divide(y:Eager) Try~Eager~
    -def divideEagers(x:Eager,y:Eager) Try~Eager~
    -def eqv(that:Eager) Try~Boolean~
    -def fuzzy Eager
    -def fuzzyCompare(p:Double) _
    ...(7 more)
  }
  class Exact {
    <<trait>>
    -val fuzz Option~Fuzziness~Double~~
  }
  class ExactNumber {
    <<trait>>
    -def isExact Boolean
    -def isUnity Boolean
    -def isZero Boolean
    -def maybeInt Option~Int~
    -def pow(that:ExactNumber) Option~ExactNumber~
    -def scale(scale:Rational) Number
    -def toRationalNumber RationalNumber
    -val asDouble Double
  }
  class Exactitude {
    <<trait>>
    +def isExact Boolean
  }
  class Exponential {
    <<abstract>>
    +def base Number
    +def compareExact(that:Exponential) Option~Int~
    +def unit(x:Number) Exponential
    -def +(a:Exponential) Exponential
    -def compare(that:Functional) Int
    -def convert~..~ _
    -def eqv(that:Eager) Try~Boolean~
    -def fuzz Option~Fuzziness~Double~~
    -def fuzzyEqv(confidence:Double) _
    -def isExact Boolean
    ...(10 more)
  }
  class Functional {
    <<trait>>
    +def number Number
    +val derivativeFunction Function1~Double,Double~
    +val scaleFunction Function1~Double,Double~
    -val maybeDouble Option~Double~
    -val maybeFuzz Option~Fuzziness~Double~~
    -val nominalValue Double
  }
  class FuzzyEq {
    <<trait>>
    +def eqv(x:A,y:A,p:Double) Boolean
  }
  class InversePower {
    -def *(factor:Rational) InversePower
    -def approximation Option~Real~
    -def compare(that:Functional) Int
    -def compareExact(that:Structure) Option~Int~
    -def convert~..~ _
    -def doScale(that:Number) Option~InversePower~
    -def eqv(that:Eager) Try~Boolean~
    -def fuzz Option~Fuzziness~Double~~
    -def fuzzyEqv(confidence:Double) _
    -def getRoot(r:Rational,lookups:Map~Int,Map~Int,Int~~) Option~Int~
    ...(22 more)
  }
  class LatexRenderer {
    <<trait>>
    +def toLatex(value:A) String
  }
  class Lazy {
    <<trait>>
    +def multiply(other:Lazy) Lazy
    +def simplify Lazy
    +def unit(x:Eager) Lazy
    -val normalize Valuable
  }
  class LinearSolution {
    -def *(r:Rational) Algebraic
    -def +(other:Solution) Solution
    -def add(addend:Eager) Try~Algebraic~
    -def add(addend:Rational) Algebraic
    -def approximation(force:Boolean) Option~Real~
    -def base Structure
    -def branches Int
    -def coefficient Int
    -def conjugate Solution
    -def eqv(that:Eager) Try~Boolean~
    ...(12 more)
  }
  class MaybeFuzzy {
    <<trait>>
    +def maybeFuzz Option~Fuzziness~Double~~
    +def nominalValue Double
  }
  class N {
    <<trait>>
    +def inc N
  }
  class Nameable {
    <<trait>>
    +def maybeName Option~String~
    -def protectedName Boolean
    -val keepSymbolic Boolean
  }
  class Nat {
    <<trait>>
    +def +(that:Nat) Nat
    -def approximation(force:Boolean) Option~Real~
    -def eqv(that:Eager) Try~Boolean~
    -def maybeFactor(context:Context) Option~Factor~
    -def maybeName Option~String~
    -val asDouble Double
    -val inc Nat
    -val isExact Boolean
    -val maybeQ Option~Q~
    -val maybeZ Option~Z~
    ...(3 more)
  }
  class NaturalExponential {
    -def compareExact(that:Exponential) Option~Int~
    -def maybeFactor(context:Context) Option~Factor~
    -def unit(x:Number) Exponential
    -val base Number
    -val exponent Number
    -val maybeName Option~String~
    -val negate Structure
    -val render String
    -val zero Exponential
  }
  class Negatable {
    <<trait>>
    +def negate T
  }
  class Normalizable {
    <<trait>>
    +def normalize T
  }
  class Number {
    <<trait>>
    +def normalize Number
    -def *(other:Number) Number
    -def +(other:Number) Number
    -def -(other:Number) Number
    -def /(other:Number) Number
    -def add(other:Number) Try~Number~
    -def compare(that:Number) Int
    -def compare(that:Scalar) Int
    -def divide(other:Number) Try~Number~
    -def eqv(that:Eager) Try~Boolean~
    ...(5 more)
  }
  class Numeric {
    <<trait>>
    +def maybeDouble Option~Double~
  }
  class Q {
    <<trait>>
    +def maybeZ Option~Z~
    +def toRational Rational
  }
  class QuadraticSolution {
    -def *(other:QuadraticSolution) Eager
    -def *(r:Rational) Algebraic
    -def +(other:Solution) Solution
    -def add(addend:Rational) Algebraic
    -def add(solution:Eager) Try~Algebraic~
    -def approximation(force:Boolean) Option~Real~
    -def conjugate QuadraticSolution
    -def eqv(that:Eager) Try~Boolean~
    -def fuzzyEqv(confidence:Double) _
    -def multiply(solution:Algebraic) Option~Eager~
    ...(15 more)
  }
  class R {
    <<trait>>
    +def asDouble Double
    +def maybeQ Option~Q~
  }
  class Radians {
    <<trait>>
    -def maybeFactor(context:Context) Option~Factor~
    -val scaleFactor Double
    -val scaleFunction Function1~Double,Double~
  }
  class RationalNumber {
    -def *(factor:Rational) ExactNumber
    -def -(that:RationalNumber) _
    -def compareExact(that:Scalar) Option~Int~
    -def convert~..~ _
    -def eqv(that:Eager) Try~Boolean~
    -def signum Int
    -def unary_- RationalNumber
    -val maybeName Option~String~
    -val maybeQ Option~Q~
    -val maybeZ Option~Z~
    ...(7 more)
  }
  class RationalPowers {
    <<trait>>
    +def pow(x:T,p:Rational) Try~T~
    -def pow(x:T,n:Int) Try~T~
  }
  class Real {
    -def *(factor:Rational) Real
    -def *(t:Real) Real
    -def +(t:Real) Real
    -def -(that:Real) _
    -def /(t:Real) Real
    -def add(other:Real) Try~Real~
    -def asDouble Double
    -def compare(that:Number) Int
    -def compareExact(that:Scalar) Option~Int~
    -def convert~..~ _
    ...(34 more)
  }
  class Renderable {
    <<trait>>
    +def render String
  }
  class RestrictedContext {
    -def factorQualifies(f:Factor) Boolean
    -val factor Factor
  }
  class Scalable {
    <<trait>>
    +def *(factor:Rational) T
    -def *(factor:Int) T
  }
  class Scalar {
    <<trait>>
    +def compareExact(that:Scalar) Option~Int~
    +def scale(r:Rational) Scalar
    +def scaleFactor Double
    -def addScalars~..~ _
    -def add~..~ _
    -def compare(x:Eager,y:Eager) Try~Int~
    -def divideScalars~..~ _
    -def divide~..~ _
    -def multiplyScalars~..~ _
    -def multiply~..~ _
    ...(4 more)
  }
  class Solution {
    <<trait>>
    +def +(other:Solution) Solution
    +def conjugate Solution
    +def scale(r:Rational) Solution
    +def toMonotone Option~Structure~
  }
  class Structure {
    <<trait>>
    +def convert~..~ _
    -def add(y:Structure) Try~Structure~
    -def addStructures(x:Structure,y:Structure) Try~Structure~
    -def approximation(force:Boolean) Option~Real~
    -def asJavaNumber Option~Number~
    -def divide(y:Structure) Try~Structure~
    -def divideStructures(x:Structure,y:Structure) Try~Structure~
    -def fuzzyEqv(confidence:Double) _
    -def multiply(y:Structure) Try~Structure~
    -def multiplyStructures(x:Structure,y:Structure) Try~Structure~
    ...(2 more)
  }
  class Succ {
    -def +(that:Nat) Nat
    -def isUnity Boolean
    -def isZero Boolean
    -def signum Int
    -val pred Nat
    -val toInt Int
  }
  class Transformed {
    <<trait>>
    +def transformation~..~ _
  }
  class TypeSafe {
    <<trait>>
    -def category String
    -def describe String
    -def typeName String
  }
  class Unitary {
    <<trait>>
    +def isUnity Boolean
  }
  class Valuable {
    <<trait>>
    +def materialize Eager
    +def maybeFactor(context:Context) Option~Factor~
    -def product(other:Valuable) Valuable
    -def show String
    -val asMonotone Structure
    -val asNumber Option~Number~
  }
  class WholeNumber {
    -def *(factor:Rational) ExactNumber
    -def -(that:WholeNumber) _
    -def compareExact(that:Scalar) Option~Int~
    -def convert~..~ _
    -def doScale(that:Number) Option~WholeNumber~
    -def eqv(that:Eager) Try~Boolean~
    -def scale(scalar:Scalar) Option~Number~
    -def signum Int
    -def toReal~..~ _
    -def unary_- WholeNumber
    ...(10 more)
  }
  class Z {
    <<trait>>
    +def toInt Int
  }
  class Zeroable {
    <<trait>>
    +def isZero Boolean
    +def signum Int
  }
  %% cross-module parents
  class CoreContext {
    <<trait>>
  }
  class WithFuzziness {
    <<trait>>
  }

  Solution <|-- Algebraic
  Unitary <|-- Algebraic
  Scalable <|-- Algebraic
  Radians <|-- Angle
  Circle <|-- Angle
  Scalable <|-- Angle
  Can <|-- Angle
  CanAdd <|-- Angle
  CanNormalize <|-- Angle
  MaybeFuzzy <|-- Angle
  Exponential <|-- BinaryExponential
  Can <|-- CanAdd
  CanAdd <|-- CanAddAndSubtract
  CanNegate <|-- CanAddAndSubtract
  Can <|-- CanMultiply
  CanMultiply <|-- CanMultiplyAndDivide
  Can <|-- CanNegate
  R <|-- Circle
  Solution <|-- Complex
  CoreContext <|-- Context
  Valuable <|-- Eager
  Approximate <|-- Eager
  DyadicOps <|-- Eager
  WithFuzziness <|-- Exact
  Number <|-- ExactNumber
  Exact <|-- ExactNumber
  Q <|-- ExactNumber
  Scalable <|-- ExactNumber
  CanPower <|-- ExactNumber
  Transformed <|-- Exponential
  Can <|-- Exponential
  CanAdd <|-- Exponential
  Structure <|-- Functional
  MaybeFuzzy <|-- Functional
  Transformed <|-- InversePower
  Scalable <|-- InversePower
  CanPower <|-- InversePower
  Valuable <|-- Lazy
  Algebraic <|-- LinearSolution
  Renderable <|-- MaybeFuzzy
  Z <|-- N
  Eager <|-- Nat
  N <|-- Nat
  Exponential <|-- NaturalExponential
  Scalar <|-- Number
  Unitary <|-- Number
  R <|-- Q
  Algebraic <|-- QuadraticSolution
  Scalar <|-- Radians
  Functional <|-- Radians
  ExactNumber <|-- RationalNumber
  Q <|-- RationalNumber
  Can <|-- RationalNumber
  CanAdd <|-- RationalNumber
  CanAddAndSubtract <|-- RationalNumber
  CanMultiply <|-- RationalNumber
  CanMultiplyAndDivide <|-- RationalNumber
  Scalable <|-- RationalNumber
  Number <|-- Real
  R <|-- Real
  Can <|-- Real
  CanAdd <|-- Real
  CanAddAndSubtract <|-- Real
  Scalable <|-- Real
  CanMultiply <|-- Real
  CanMultiplyAndDivide <|-- Real
  CanPower <|-- Real
  MaybeFuzzy <|-- Real
  Context <|-- RestrictedContext
  Structure <|-- Scalar
  Eager <|-- Solution
  Negatable <|-- Solution
  Eager <|-- Structure
  WithFuzziness <|-- Structure
  Negatable <|-- Structure
  Nat <|-- Succ
  Functional <|-- Transformed
  Renderable <|-- Valuable
  Numeric <|-- Valuable
  Zeroable <|-- Valuable
  Unitary <|-- Valuable
  Exactitude <|-- Valuable
  Normalizable <|-- Valuable
  TypeSafe <|-- Valuable
  ExactNumber <|-- WholeNumber
  Z <|-- WholeNumber
  Can <|-- WholeNumber
  CanAdd <|-- WholeNumber
  CanAddAndSubtract <|-- WholeNumber
  CanMultiply <|-- WholeNumber
  Q <|-- Z
