classDiagram
  %% expression -- auto-generated by MermaidMain, do not edit

  class AbstractRoot {
    <<abstract>>
    +def pure(equ:Equation,branch:Int) Root
    -def approximation(force:Boolean) Option~Real~
    -def evaluate(context:Context) Option~Eager~
    -def isUnity Boolean
    -def isZero Boolean
    -def maybeFactor(context:Context) Option~Factor~
    -def negate Expression
    -def power(r:Rational) Expression
    -def reciprocal Expression
    -def signum Int
    ...(11 more)
  }
  class AbstractTranscendental {
    <<abstract>>
    -def approximation(force:Boolean) Option~Real~
    -def evaluate(context:Context) Option~Eager~
    -def function(f:ExpressionMonoFunction) Transcendental
    -def maybeFactor(context:Context) Option~Factor~
    -val expression Expression
    -val isExact Boolean
    -val isUnity Boolean
    -val isZero Boolean
    -val maybeDouble Option~Double~
    -val maybeName Option~String~
    ...(5 more)
  }
  class Aggregate {
    -def add(x:Expression) Aggregate
    -def addAll(ys:Seq~Expression~) Aggregate
    -def approximation(force:Boolean) Option~Real~
    -def contains~..~ _
    -def eliminateComplementaryTerms(complementaryPredicate:Function3~Express
    -def evaluate(context:Context) Option~Eager~
    -def maybeFactor(context:Context) Option~Factor~
    -val depth Int
    -val function ExpressionBiFunction
    -val identitiesMatcher AutoMatcher~Expression~
    ...(6 more)
  }
  class Anadic {
    <<trait>>
  }
  class ArithmeticParser {
    <<abstract>>
    +def div Function2~T,T,T~
    +def negate Function1~T,T~
    +def one T
    +def plus Function2~T,T,T~
    +def times Function2~T,T,T~
    +def zero T
    -def expr Parser~Expr~
    -def factor Parser~Factor~
    -def lift(t:Try~T~) _
    -def map2(t1:Try~T~,t2:Try~T~) _
    ...(4 more)
  }
  class ArithmeticParserNumeric {
    <<abstract>>
    -def div Function2~T,T,T~
    -def negate Function1~T,T~
    -def one T
    -def plus Function2~T,T,T~
    -def times Function2~T,T,T~
    -def zero T
    -val num Numeric~T~
  }
  class AtomicExpression {
    <<trait>>
    +def simplifyAtomic AutoMatcher~Expression~
    -val depth Int
    -val isAtomic Boolean
  }
  class BaseMillParser {
    <<abstract>>
    -def anadicOperator Parser~String~
    -def anadicTerm Parser~AnadicTerm~
    -def dyadicOperator Parser~String~
    -def dyadicTerm Parser~Term~
    -def mill Parser~Mill~
    -def monadicOperator Parser~String~
    -def monadicTerm Parser~MonadicTerm~
    -def neutralOperator1 Parser~String~
    -def neutralOperator2 Parser~String~
    -def parseMill(w:String) Try~Mill~
    ...(1 more)
  }
  class BaseNumberParser {
    <<abstract>>
    -def calculateFuzz(exponent:Int,decimalPlaces:Int) Option~Fuzziness~Doubl
    -def exponent Parser~String~
    -def factor Parser~Factor~
    -def fuzz Parser~Option~String~~
    -def generalNumber Parser~ValuableNumber~
    -def maybeNumber Parser~Option~Number~~
    -def number Parser~Number~
    -def numberWithFuzziness Parser~NumberWithFuzziness~
    -def optionalNumber(ro:Option~ValuableNumber~,fo:Option~Factor~) Option~N
    -def parseNumber(w:String) Try~Number~
    ...(2 more)
  }
  class BaseRationalParser {
    <<abstract>>
    -def WholeNumber WholeNumber$
    -def ratioNumber Parser~RatioNumber~
    -def rationalNumber Parser~ValuableNumber~
    -def realNumber Parser~RealNumber~
    -def repeatingDecimal Parser~RepeatingDecimal~
    -def simpleNumber Parser~WholeNumber~
    -def unsignedWholeNumber Parser~String~
    -def vulgarFraction Parser~VulgarFractionNumber~
    -val E Regex
  }
  class BiFunction {
    -def approximation(force:Boolean) Option~Real~
    -def approximationComplex(force:Boolean) Option~Eager~
    -def evaluate(context:Context) Option~Eager~
    -def leaveOperandsAsIs Boolean
    -def matchBiFunctionIdentitiesAtan(a:Expression,b:Expression) MatchResult
    -def matchBiFunctionIdentitiesLog(a:Expression,b:Expression) MatchResult~
    -def matchBiFunctionIdentitiesPower(a:Expression,b:Expression) MatchResul
    -def matchBiFunctionIdentitiesProduct(a:Expression,b:Expression) MatchRes
    -def matchBiFunctionIdentitiesSum(a:Expression,b:Expression) MatchResult~
    -def matchLiteral(l:Expression,x:Expression,f:ExpressionBiFunction) Match
    ...(18 more)
  }
  class CommutativeExtractor {
    <<abstract>>
    +def extractLeft(e:Expression) Option~A~
    +def extractRight(e:Expression) Option~B~
  }
  class ComplexParser {
    -def complexNumber Parser~Complex~
    -def doParse(w:String) Try~Complex~
    -val sign Parser~String~
  }
  class CompositeExpression {
    <<trait>>
    +def identitiesMatcher AutoMatcher~Expression~
    +def operandsMatcher AutoMatcher~Expression~
    +def renderAsExpression String
    +def structuralMatcher AutoMatcher~Expression~
    +def terms Seq~Expression~
    -def leaveOperandsAsIs Boolean
    -def shouldStaySymbolic Boolean
    -val isAtomic Boolean
    -val isUnity Boolean
    -val isZero Boolean
    ...(4 more)
  }
  class Dyadic {
    -val leftAssociativity Boolean
    -val precedence Int
  }
  class DyadicExpression {
    -def value Number
    -val left Expression
    -val operator String
    -val right Expression
  }
  class Equation {
    <<trait>>
    +def evaluate(s:Solution) Eager
    +def invert Equation
    +def shiftOrigin(c:Rational) Equation
    +def solve(branch:Int) Solution
    +def transform(fP:Function2~Rational,Rational,Rational~,fQ:Function2~Rati
  }
  class Euler {
    -def approximation(force:Boolean) Option~Real~
    -def ensureRadian(n:Number) Number
    -def evaluate(context:Context) Option~Eager~
    -def maybeFactor(context:Context) Option~Factor~
    -val depth Int
    -val identitiesMatcher AutoMatcher~Expression~
    -val isExact Boolean
    -val operandsMatcher AutoMatcher~Expression~
    -val r Expression
    -val renderAsExpression String
    ...(3 more)
  }
  class Expr {
    -def *(multiplicand:Expr) Expression
    -def +(addend:Expr) Expression
    -val x Expression
  }
  class Expression {
    <<trait>>
    +def value Number
    -def *(that:Expression) Expression
    -def +(that:Expression) Expression
    -def cos Expression
    -def exp Expression
    -def ln Expression
    -def negate Expression
    -def reciprocal Expression
    -def sin Expression
    -def sqrt Expression
    ...(1 more)
  }
  class Expression {
    <<trait>>
    +def +:(token:ExpressionToken) ExpressionTokens
    +def tokens Seq~ExpressionToken~
    -def +(expression:Expression) Expression
  }
  class Expression {
    <<trait>>
    +def depth Int
    +def evaluate(context:Context) Option~Eager~
    +def isAtomic Boolean
    -def multiply(other:Lazy) Lazy
    -def normalizeIfAppropriate(e:Eager) Eager
    -def unit(x:Eager) Lazy
    -val approximation Option~Real~
    -val approximationComplex Option~Eager~
    -val asCoreNumber Option~Number~
    -val containsI Boolean
    ...(6 more)
  }
  class ExpressionBiFunction {
    <<abstract>>
    +def applyExact(a:Eager,b:Eager) Option~Eager~
    +def leftContext(context:Context) Context
    +def rightContext(factor:Factor) _
    -def applyExact(p:Tuple2~Eager,Eager~) Option~Eager~
    -def evaluate(a:Expression,b:Expression) _
    -def evaluateAsIs(x:Expression,y:Expression) Option~Eager~
    -val commutes Boolean
    -val f Function2~Eager,Eager,Eager~
    -val isExact Boolean
    -val maybeIdentityL Option~Eager~
    ...(2 more)
  }
  class ExpressionException {
    -val str String
    -val x Throwable
  }
  class ExpressionFunction {
    <<trait>>
    +def applyExact(p:P) Option~Eager~
    +def name String
  }
  class ExpressionMatchers {
    -def ExpressionMatcher~..~ _
    -def MatchCheck~..~ _
    -def angleEliminatorAggregate Matcher~Aggregate,Expression~
    -def complementaryMonadic(f:ExpressionMonoFunction,g:ExpressionMonoFuncti
    -def complementaryTermsEliminatorAggregate Matcher~Aggregate,Expression~
    -def complementaryTermsEliminatorBiFunction(complementaryPredicate:Functi
    -def factorsMatch(f:ExpressionBiFunction,x:Expression,y:Expression) Boole
    -def isComplementary(f:ExpressionBiFunction,x:Expression,y:Expression) Bo
    -def literalsCombiner Matcher~Expression,Expression~
    -def matchAdditiveIdentity(x:Expression) Match~Literal|_~
    ...(9 more)
  }
  class ExpressionMonoFunction {
    <<abstract>>
    +def applyExact(x:Eager) Option~Eager~
    +def paramContext(context:Context) Context
    -def applyComplex(z:Complex) Option~Eager~
    -def evaluate(a:Expression) _
    -val f Function1~Eager,Eager~
    -val name String
    -val parity Parity
  }
  class ExpressionParser {
    -def e Parser~String~
    -def expr Parser~Expr~
    -def factor Parser~Factor~
    -def map2(t1:Try~Expression~,t2:Try~Expression~) _
    -def number Parser~Factor~
    -def parentheses Parser~Parentheses~
    -def pi Parser~String~
    -def stringParser~..~ _
    -def term Parser~Term~
  }
  class ExpressionParserException {
    -val message String
  }
  class ExpressionToken {
    -val token String
    -val tokenType TokenType
  }
  class ExpressionTokens {
    -def +:(token:ExpressionToken) ExpressionTokens
    -val tokens Seq~ExpressionToken~
  }
  class Hyperbolic {
    <<abstract>>
    -def applyExact(x:Eager) Option~Eager~
    -def paramContext(context:Context) Context
    -val parity Parity
    -val sinh Boolean
  }
  class Item {
    <<trait>>
  }
  class LinearEquation {
    -def *(factor:Rational) Equation
    -def branched(index:Int) Expression
    -def branches Int
    -def evaluate(s:Solution) Eager
    -def invert Equation
    -def shiftOrigin(c:Rational) LinearEquation
    -def solve(branch:Int) Solution
    -def transform(fP:Function2~Rational,Rational,Rational~,fQ:Function2~Rati
    -val r Rational
    -val render String
  }
  class LinearRoot {
    -def add(other:Root) Option~Root~
    -def branch Int
    -def branched(index:Int) Root
    -def branches Int
    -def equation LinearEquation
    -def pure(equ:Equation,branch:Int) Root
    -val equ Equation
    -val maybeName Option~String~
  }
  class Literal {
    -def doMonoFunction(f:ExpressionMonoFunction) Option~Eager~
    -def monadicFunction(f:ExpressionMonoFunction) Option~ValueExpression~
    -def simplifyAtomic AutoMatcher~Expression~
    -val maybeName Option~String~
    -val value Eager
  }
  class LogLevel {
    <<trait>>
  }
  class MatchersExtras {
    <<trait>>
    -def matchOptionFunc2~..~ _
  }
  class MathematicalEq {
    <<trait>>
    +def eqv(x:A,y:A) Boolean
    -def ≡(x:A,y:A) Boolean
  }
  class Mill {
    <<trait>>
    +def evaluate Option~Expression~
    +def pop Tuple2~Option~Item~,Mill~
    +def push(x:Item) Mill
    -def iterator Iterator~Item~
  }
  class MillException {
    -val s String
  }
  class Monadic {
    <<trait>>
  }
  class MonadicExpression {
    -def value Number
    -val expression Expression
    -val str String
  }
  class Multiple {
    <<trait>>
    +def terms Seq~Expression~
  }
  class NamedConstant {
    <<abstract>>
    -def simplifyAtomic AutoMatcher~Expression~
    -val name String
    -val x Eager
  }
  class Noop {
    -def approximation(force:Boolean) Option~Real~
    -def evaluate(context:Context) Option~Eager~
    -def isExact Boolean
    -def isUnity Boolean
    -def isZero Boolean
    -def maybeDouble Option~Double~
    -def maybeFactor(context:Context) Option~Factor~
    -def signum Int
    -def simplifyAtomic AutoMatcher~Expression~
    -val maybeName Option~String~
    ...(2 more)
  }
  class Parity {
    <<abstract>>
  }
  class ParseException {
    -val s String
  }
  class QuadraticEquation {
    -def *(x:Rational) Equation
    -def branched(index:Int) Expression
    -def branches Int
    -def conjugateProduct Rational
    -def conjugateSum Rational
    -def evaluate(solution:Solution) Eager
    -def invert QuadraticEquation
    -def shiftOrigin(c:Rational) QuadraticEquation
    -def solve(branch:Int) Solution
    -def transform(fP:Function2~Rational,Rational,Rational~,fQ:Function2~Rati
    ...(4 more)
  }
  class QuadraticRoot {
    -def add(other:Root) Option~Root~
    -def add(other:Solution) Option~Root~
    -def branched(index:Int) Root
    -def branches Int
    -def equation QuadraticEquation
    -def pure(equ:Equation,branch:Int) Root
    -val branch Int
    -val equ Equation
    -val maybeName Option~String~
  }
  class RationalParserException {
    -val m String
  }
  class RepeatingDecimal {
    -def value Try~Rational~
    -val integerPart String
    -val nonRepeatingPart Option~String~
    -val repeatingPart String
    -val sign Boolean
  }
  class Root {
    <<trait>>
    +def add(other:Root) Option~Root~
    +def approximation(force:Boolean) Option~Real~
    +def branch Int
    +def equation Equation
    +def negate Expression
    +def power(r:Rational) Expression
    +def reciprocal Expression
    +def squareRoot(plus:Boolean) Expression
    -def isExact Boolean
    -def square Expression
  }
  class ScalarConstant {
    <<abstract>>
    -val name String
    -val x Eager
  }
  class SignificantSpaceParserException {
    -val m String
  }
  class SignificantSpaceParsers {
    <<abstract>>
    -def ParserOps~..~ _
    -def ParserOptionOps~..~ _
    -def RegexOps(r:Regex) RegexOps
    -def composeOption~..~ _
    -def compose~..~ _
    -def debug~..~ _
    -def logit~..~ _
    -def repSepSp~..~ _
    -def skipWhitespace Boolean
    -def stringParser~..~ _
    ...(3 more)
  }
  class SineCos {
    <<abstract>>
    -def applyExact(x:Eager) Option~Eager~
    -def paramContext(context:Context) Context
    -val parity Parity
    -val sine Boolean
  }
  class Stack {
    -def calculateDyadic(f:Dyadic,x1:Expression,x2:Expression) Expression
    -def calculateMonadic(f:Monadic,x:Expression) Expression
    -def evaluate Option~Expression~
    -def evaluate1(x:Item) Tuple2~Option~Expression~,Mill~
    -def evaluate2(f:Dyadic,x:Expression) Tuple2~Option~Expression~,Mill~
    -def evaluateDyadic(f:Dyadic) Tuple2~Option~Expression~,Mill~
    -def evaluateInternal Tuple2~Option~Expression~,Mill~
    -def evaluateMonadic(f:Monadic) Tuple2~Option~Expression~,Mill~
    -def evaluateSwap Tuple2~Option~Expression~,Mill~
    -def isEmpty Boolean
    ...(3 more)
  }
  class TerminalExpression {
    -val value Number
  }
  class TokenType {
    <<abstract>>
  }
  class Transcendental {
    <<trait>>
    +def function(f:ExpressionMonoFunction) Transcendental
  }
  class UniFunction {
    -def approximation(force:Boolean) Option~Real~
    -def approximationComplex(force:Boolean) Option~Eager~
    -def evaluate(context:Context) Option~Eager~
    -def matchExponential(x:Expression) MatchResult~Expression~
    -def maybeFactor(context:Context) Option~Factor~
    -val depth Int
    -val f ExpressionMonoFunction
    -val identitiesMatcher AutoMatcher~Expression~
    -val isExact Boolean
    -val operandsMatcher AutoMatcher~Expression~
    ...(4 more)
  }
  class ValuableNumber {
    <<trait>>
    +def value Try~Rational~
  }
  class ValueExpression {
    <<abstract>>
    +def monadicFunction(f:ExpressionMonoFunction) Option~ValueExpression~
    -def approximation(force:Boolean) Option~Real~
    -def approximationComplex(force:Boolean) Option~Eager~
    -def evaluate(context:Context) Option~Eager~
    -def isExact Boolean
    -def isUnity Boolean
    -def isZero Boolean
    -def maybeDouble Option~Double~
    -def maybeFactor(context:Context) Option~Factor~
    -def signum Int
    ...(3 more)
  }
  class VulgarFractionNumber {
    -def value Try~Rational~
    -val fraction String
  }
  %% cross-module parents
  class Approximate {
    <<trait>>
  }
  class Branched {
    <<trait>>
  }
  class Lazy {
    <<trait>>
  }
  class Nameable {
    <<trait>>
  }
  class Renderable {
    <<trait>>
  }
  class Scalable {
    <<trait>>
  }
  class Zeroable {
    <<trait>>
  }

  Root <|-- AbstractRoot
  Transcendental <|-- AbstractTranscendental
  Multiple <|-- Aggregate
  Item <|-- Anadic
  ArithmeticParser <|-- ArithmeticParserNumeric
  Expression <|-- AtomicExpression
  Nameable <|-- AtomicExpression
  BaseNumberParser <|-- BaseMillParser
  BaseRationalParser <|-- BaseNumberParser
  SignificantSpaceParsers <|-- BaseRationalParser
  Multiple <|-- BiFunction
  BaseNumberParser <|-- ComplexParser
  Expression <|-- CompositeExpression
  Item <|-- Dyadic
  Expression <|-- DyadicExpression
  Branched <|-- Equation
  Scalable <|-- Equation
  Renderable <|-- Equation
  CompositeExpression <|-- Euler
  Item <|-- Expr
  Lazy <|-- Expression
  Approximate <|-- Expression
  ExpressionFunction <|-- ExpressionBiFunction
  MatchersExtras <|-- ExpressionMatchers
  ExpressionFunction <|-- ExpressionMonoFunction
  Expression <|-- ExpressionTokens
  ExpressionMonoFunction <|-- Hyperbolic
  Equation <|-- LinearEquation
  AbstractRoot <|-- LinearRoot
  ValueExpression <|-- Literal
  Item <|-- Monadic
  Expression <|-- MonadicExpression
  CompositeExpression <|-- Multiple
  ValueExpression <|-- NamedConstant
  AtomicExpression <|-- Noop
  Equation <|-- QuadraticEquation
  AbstractRoot <|-- QuadraticRoot
  ValuableNumber <|-- RepeatingDecimal
  AtomicExpression <|-- Root
  Branched <|-- Root
  Zeroable <|-- Root
  NamedConstant <|-- ScalarConstant
  ExpressionMonoFunction <|-- SineCos
  Mill <|-- Stack
  Expression <|-- TerminalExpression
  AtomicExpression <|-- Transcendental
  CompositeExpression <|-- UniFunction
  AtomicExpression <|-- ValueExpression
  ValuableNumber <|-- VulgarFractionNumber
