classDiagram
  %% Auto-generated by MermaidDiagramGenerator -- do not edit by hand

  class AbsoluteFuzz
  class AbstractRoot
  AbstractRoot : <<abstract>>
  class AbstractTranscendental
  AbstractTranscendental : <<abstract>>
  class Algebraic
  Algebraic : <<trait>>
  class Angle
  class AnyRoot
  class Approximatable
  Approximatable : <<trait>>
  class Approximate
  Approximate : <<trait>>
  class AtomicExpression
  AtomicExpression : <<trait>>
  class BadFactor
  class BaseRNG
  BaseRNG : <<abstract>>
  class BinaryExponential
  class Bounded
  class Branched
  Branched : <<trait>>
  class Can
  Can : <<trait>>
  class CanAdd
  CanAdd : <<trait>>
  class CanAddAndSubtract
  CanAddAndSubtract : <<trait>>
  class CanMultiply
  CanMultiply : <<trait>>
  class CanMultiplyAndDivide
  CanMultiplyAndDivide : <<trait>>
  class CanNegate
  CanNegate : <<trait>>
  class CanNormalize
  CanNormalize : <<trait>>
  class CanPower
  CanPower : <<trait>>
  class Circle
  Circle : <<trait>>
  class DimensionError
  class DyadicOperation
  DyadicOperation : <<trait>>
  class DyadicOps
  DyadicOps : <<trait>>
  class Eager
  Eager : <<trait>>
  class Exact
  Exact : <<trait>>
  class ExactNumber
  ExactNumber : <<trait>>
  class Exactitude
  Exactitude : <<trait>>
  class Exponential
  Exponential : <<abstract>>
  class Expression
  Expression : <<trait>>
  class ExpressionBiFunction
  ExpressionBiFunction : <<abstract>>
  class ExpressionFunction
  ExpressionFunction : <<trait>>
  class ExpressionMonoFunction
  ExpressionMonoFunction : <<abstract>>
  class Factor
  Factor : <<trait>>
  class Field
  Field : <<trait>>
  class FloatingPoint
  class Functional
  Functional : <<trait>>
  class Fuzz
  Fuzz : <<trait>>
  class Fuzziness
  Fuzziness : <<trait>>
  class Fuzzy
  Fuzzy : <<trait>>
  class FuzzyBase
  FuzzyBase : <<abstract>>
  class FuzzyColor
  FuzzyColor : <<trait>>
  class FuzzyNumber
  class Gaussian
  class GeneralNumber
  GeneralNumber : <<abstract>>
  class Hyperbolic
  Hyperbolic : <<abstract>>
  class InversePower
  InversePower : <<trait>>
  class Lazy
  Lazy : <<trait>>
  class LinearRoot
  class LinearSolution
  class Literal
  class Logarithmic
  Logarithmic : <<trait>>
  class MaybeFuzzy
  MaybeFuzzy : <<trait>>
  class MonadicOperation
  MonadicOperation : <<trait>>
  class MonadicOperationAtan
  class MonadicOperationFunc
  class MonadicOperationModulate
  class MonadicOperationScale
  class N
  N : <<trait>>
  class Nameable
  Nameable : <<trait>>
  class NamedConstant
  NamedConstant : <<abstract>>
  class Nat
  Nat : <<trait>>
  class Natural
  Natural : <<trait>>
  class NaturalExponential
  class Negatable
  Negatable : <<trait>>
  class Normalizable
  Normalizable : <<trait>>
  class NthRoot
  NthRoot : <<abstract>>
  class Number
  Number : <<trait>>
  class NumberLike
  NumberLike : <<trait>>
  class NumberSet
  NumberSet : <<trait>>
  class Numeric
  Numeric : <<trait>>
  class Numerical
  Numerical : <<trait>>
  class Operation
  Operation : <<trait>>
  class Parentheses
  class ParseError
  ParseError : <<trait>>
  class Q
  Q : <<trait>>
  class QuadraticRoot
  class QuadraticSolution
  class QueryOperation
  QueryOperation : <<trait>>
  class R
  R : <<trait>>
  class RNG
  RNG : <<trait>>
  class Radians
  Radians : <<trait>>
  class RandomLong
  class RationalNumber
  class Real
  class RelativeFuzz
  class Renderable
  Renderable : <<trait>>
  class Root
  Root : <<trait>>
  class Scalable
  Scalable : <<trait>>
  class Scalar
  Scalar : <<trait>>
  class ScalarConstant
  ScalarConstant : <<abstract>>
  class SineCos
  SineCos : <<abstract>>
  class Solution
  Solution : <<trait>>
  class Structure
  Structure : <<trait>>
  class Succ
  class SyntaxError
  class Tokens
  Tokens : <<trait>>
  class Transcendental
  Transcendental : <<trait>>
  class Transformed
  Transformed : <<trait>>
  class TypeSafe
  TypeSafe : <<trait>>
  class UnitError
  class Unitary
  Unitary : <<trait>>
  class Valuable
  Valuable : <<trait>>
  class ValuableNumber
  ValuableNumber : <<trait>>
  class ValueExpression
  ValueExpression : <<abstract>>
  class WholeNumber
  class WithFuzziness
  WithFuzziness : <<trait>>
  class Z
  Z : <<trait>>
  class Zeroable
  Zeroable : <<trait>>

  Fuzziness <|-- AbsoluteFuzz
  Root <|-- AbstractRoot
  Transcendental <|-- AbstractTranscendental
  Solution <|-- Algebraic
  Unitary <|-- Algebraic
  Scalable <|-- Algebraic
  Radians <|-- Angle
  Circle <|-- Angle
  Scalable <|-- Angle
  CanAdd <|-- Angle
  CanNormalize <|-- Angle
  MaybeFuzzy <|-- Angle
  InversePower <|-- AnyRoot
  Expression <|-- AtomicExpression
  Nameable <|-- AtomicExpression
  Factor <|-- BadFactor
  RNG <|-- BaseRNG
  Exponential <|-- BinaryExponential
  FuzzyBase <|-- Bounded
  Can <|-- CanAdd
  CanAdd <|-- CanAddAndSubtract
  CanNegate <|-- CanAddAndSubtract
  Can <|-- CanMultiply
  CanMultiply <|-- CanMultiplyAndDivide
  Can <|-- CanNegate
  R <|-- Circle
  ParseError <|-- DimensionError
  Operation <|-- DyadicOperation
  Valuable <|-- Eager
  Approximate <|-- Eager
  DyadicOps <|-- Eager
  FuzzyBase <|-- Exact
  WithFuzziness <|-- Exact
  GeneralNumber <|-- ExactNumber
  Number <|-- ExactNumber
  Exact <|-- ExactNumber
  Q <|-- ExactNumber
  Scalable <|-- ExactNumber
  CanPower <|-- ExactNumber
  Transformed <|-- Exponential
  CanAdd <|-- Exponential
  Lazy <|-- Expression
  Approximate <|-- Expression
  ExpressionFunction <|-- ExpressionMonoFunction
  Expression <|-- Factor
  Tokens <|-- Factor
  Numerical <|-- Field
  Approximatable <|-- Field
  Factor <|-- FloatingPoint
  Structure <|-- Functional
  MaybeFuzzy <|-- Functional
  WithFuzziness <|-- Fuzz
  Fuzzy <|-- FuzzyBase
  Fuzzy <|-- FuzzyColor
  GeneralNumber <|-- FuzzyNumber
  Fuzz <|-- FuzzyNumber
  FuzzyBase <|-- Gaussian
  Number <|-- GeneralNumber
  Fuzz <|-- GeneralNumber
  ExpressionMonoFunction <|-- Hyperbolic
  Factor <|-- InversePower
  Transformed <|-- InversePower
  Scalable <|-- InversePower
  CanPower <|-- InversePower
  Valuable <|-- Lazy
  AbstractRoot <|-- LinearRoot
  Solution <|-- LinearSolution
  Algebraic <|-- LinearSolution
  ValueExpression <|-- Literal
  Factor <|-- Logarithmic
  Renderable <|-- MaybeFuzzy
  Operation <|-- MonadicOperation
  MonadicOperation <|-- MonadicOperationAtan
  MonadicOperation <|-- MonadicOperationFunc
  MonadicOperation <|-- MonadicOperationModulate
  MonadicOperation <|-- MonadicOperationScale
  Z <|-- N
  ValueExpression <|-- NamedConstant
  Eager <|-- Nat
  N <|-- Nat
  Exponential <|-- NaturalExponential
  InversePower <|-- NthRoot
  Fuzz <|-- Number
  Numerical <|-- Number
  Scalar <|-- Number
  Unitary <|-- Number
  NumberLike <|-- Numerical
  Factor <|-- Parentheses
  R <|-- Q
  AbstractRoot <|-- QuadraticRoot
  Solution <|-- QuadraticSolution
  Algebraic <|-- QuadraticSolution
  Scalar <|-- Radians
  Functional <|-- Radians
  BaseRNG <|-- RandomLong
  ExactNumber <|-- RationalNumber
  Q <|-- RationalNumber
  CanAddAndSubtract <|-- RationalNumber
  CanMultiplyAndDivide <|-- RationalNumber
  Scalable <|-- RationalNumber
  Field <|-- Real
  Number <|-- Real
  R <|-- Real
  CanAddAndSubtract <|-- Real
  Scalable <|-- Real
  CanMultiplyAndDivide <|-- Real
  CanPower <|-- Real
  MaybeFuzzy <|-- Real
  Fuzziness <|-- RelativeFuzz
  AtomicExpression <|-- Root
  Branched <|-- Root
  Zeroable <|-- Root
  Factor <|-- Scalar
  Structure <|-- Scalar
  NamedConstant <|-- ScalarConstant
  ExpressionMonoFunction <|-- SineCos
  NumberLike <|-- Solution
  Eager <|-- Solution
  Negatable <|-- Solution
  Eager <|-- Structure
  WithFuzziness <|-- Structure
  Negatable <|-- Structure
  Nat <|-- Succ
  ParseError <|-- SyntaxError
  AtomicExpression <|-- Transcendental
  Functional <|-- Transformed
  ParseError <|-- UnitError
  Renderable <|-- Valuable
  Numeric <|-- Valuable
  Zeroable <|-- Valuable
  Unitary <|-- Valuable
  Exactitude <|-- Valuable
  Normalizable <|-- Valuable
  TypeSafe <|-- Valuable
  AtomicExpression <|-- ValueExpression
  ValuableNumber <|-- WholeNumber
  ExactNumber <|-- WholeNumber
  Z <|-- WholeNumber
  CanAddAndSubtract <|-- WholeNumber
  CanMultiply <|-- WholeNumber
  Q <|-- Z
